<svg width="64" height="64" viewBox="0 0 64 64" xmlns="http://www.w3.org/2000/svg">

    <path opacity="0.48" fill="#637381" d="M43.4118 15.2792C42.6075 14.3345 41.8032 13.9033 40.5766 13.9033H13.4218C12.7783 13.9033 12.2555 13.4104 12.1952 12.7512L11.8132 8.15124C11.7528 7.45303 11.2502 6.88008 10.5665 6.75481L5.77093 6.01758C4.94653 5.89232 4.16235 6.44883 4.0216 7.28874C3.88085 8.11017 4.44385 8.91106 5.24814 9.05481C7.03701 9.36938 8.38864 10.8509 8.53822 12.661L10.1342 31.9746C10.3554 34.6853 12.5672 36.7779 15.2415 36.7779H37.1785C39.7321 36.7779 41.9037 34.8702 42.2656 32.2806L44.1758 18.8092C44.3568 17.5792 44.216 16.2238 43.4118 15.2792Z"/>

    <path fill="#637381" d="M20.2268 22.7221C18.893 22.7221 18.0184 23.191 17.1439 24.2182C16.2693 25.2454 16.1162 26.7192 16.313 28.0568L18.3901 42.7055C18.7837 45.5214 21.1451 47.5959 23.9219 47.5959H47.7762C50.6842 47.5959 53.0893 45.3204 53.3298 42.3728L55.3413 18.0304L58.6429 17.4498C59.5175 17.2935 60.1297 16.4226 59.9766 15.5294C59.8236 14.6161 58.9708 14.011 58.0744 14.1472L52.8597 14.9488C52.1163 15.0851 51.5697 15.7081 51.5041 16.4673L51.0887 21.4693C51.0231 22.1861 50.4546 22.7221 49.7549 22.7221H20.2268Z"/>

    <path fill="#637381" d="M48.1267 51.1256C49.9633 51.1256 51.4501 52.6441 51.4501 54.5199C51.4501 56.3733 49.9633 57.8917 48.1267 57.8917C46.312 57.8917 44.8252 56.3733 44.8252 54.5199C44.8252 52.6441 46.312 51.1256 48.1267 51.1256Z"/>

    <path fill="#637381" d="M23.5292 51.1256C25.3659 51.1256 26.8527 52.6441 26.8527 54.5199C26.8527 56.3733 25.3659 57.8917 23.5292 57.8917C21.7145 57.8917 20.2277 56.3733 20.2277 54.5199C20.2277 52.6441 21.7145 51.1256 23.5292 51.1256Z"/>

</svg>